<svg width="20" height="19" viewBox="0 0 20 19" fill="none" xmlns="http://www.w3.org/2000/svg">
<g clip-path="url(#clip0_831_99)">
<path fill-rule="evenodd" clip-rule="evenodd" d="M9.01675 0.676371C9.7148 -0.0216807 10.8466 -0.0216809 11.5446 0.67637L12.4552 1.587C12.9022 2.03395 13.5084 2.28505 14.1405 2.28505H15.6068C16.594 2.28505 17.3943 3.08533 17.3943 4.07252V5.53885C17.3943 6.17094 17.6454 6.77714 18.0923 7.22409L19.071 8.20279C19.7691 8.90084 19.7691 10.0326 19.071 10.7307L18.0923 11.7093C17.6454 12.1563 17.3943 12.7625 17.3943 13.3946V14.7165C17.3943 15.7037 16.594 16.504 15.6068 16.504H14.2849C13.6528 16.504 13.0466 16.7551 12.5997 17.202L11.5446 18.2571C10.8466 18.9551 9.7148 18.9551 9.01675 18.2571L7.96169 17.202C7.51473 16.7551 6.90853 16.504 6.27644 16.504H4.96286C3.97567 16.504 3.17539 15.7037 3.17539 14.7165V13.4029C3.17539 12.7708 2.92429 12.1646 2.47734 11.7177L1.49034 10.7307C0.792284 10.0326 0.792284 8.90084 1.49033 8.20279L2.47734 7.21579C2.92429 6.76883 3.17539 6.16263 3.17539 5.53054V4.07252C3.17539 3.08533 3.97567 2.28505 4.96286 2.28505H6.42088C7.05297 2.28505 7.65917 2.03395 8.10612 1.587L9.01675 0.676371ZM12.2614 6.95264C11.9822 6.67344 11.5295 6.67344 11.2503 6.95264L7.4457 10.7573C7.16651 11.0365 7.16651 11.4891 7.4457 11.7683C7.7249 12.0475 8.17756 12.0475 8.45676 11.7683L12.2614 7.96369C12.5406 7.68449 12.5406 7.23183 12.2614 6.95264ZM8.98407 7.3659C8.98407 7.98636 8.48109 8.48935 7.86062 8.48935C7.24016 8.48935 6.73717 7.98636 6.73717 7.3659C6.73717 6.74543 7.24016 6.24244 7.86062 6.24244C8.48109 6.24244 8.98407 6.74543 8.98407 7.3659ZM11.9451 12.5752C12.5655 12.5752 13.0685 12.0722 13.0685 11.4518C13.0685 10.8313 12.5655 10.3283 11.9451 10.3283C11.3246 10.3283 10.8216 10.8313 10.8216 11.4518C10.8216 12.0722 11.3246 12.5752 11.9451 12.5752Z" fill="#F88922"/>
</g>
<defs>
<clipPath id="clip0_831_99">
<rect width="18.6278" height="18.6278" fill="white" transform="translate(0.966797 0.152832)"/>
</clipPath>
</defs>
</svg>
