<svg width="18" height="18" viewBox="0 0 18 18" fill="none" xmlns="http://www.w3.org/2000/svg">
<g clip-path="url(#clip0_45_1195)">
<path d="M7.07793 9.27839C7.34862 9.67012 7.2677 9.3437 7.2677 17.1519C7.2677 17.8507 8.06489 18.2506 8.62674 17.8326C11.0276 16.0225 11.5073 15.8657 11.5073 15.019C11.5073 9.329 11.441 9.64899 11.6971 9.27839L15.5958 3.9715H3.1792L7.07793 9.27839Z" fill="#079D49"/>
<path d="M17.0686 1.2078C16.9293 0.94097 16.6561 0.775085 16.3553 0.775085H2.41976C1.77018 0.775085 1.38798 1.50784 1.76059 2.04025C1.76365 2.04536 1.7183 1.98328 2.43759 2.96221H16.3374C16.9504 2.12797 17.3601 1.76753 17.0686 1.2078Z" fill="#079D49"/>
</g>
<defs>
<clipPath id="clip0_45_1195">
<rect width="17.2278" height="17.2278" fill="white" transform="translate(0.775391 0.775085)"/>
</clipPath>
</defs>
</svg>
