<svg width="19" height="16" viewBox="0 0 19 16" fill="none" xmlns="http://www.w3.org/2000/svg">
<path d="M9.1203 15.546C8.25775 15.546 3.36275 11.5265 1.422 9.03624C1.14167 8.73042 0.882903 8.33721 0.645701 7.90032L0.581009 7.76925C0.537882 7.66003 0.47319 7.5508 0.430062 7.39789C0.386935 7.28867 0.343807 7.1576 0.300679 7.02653C0.149732 6.50226 0.0634766 6.02168 0.0634766 5.56294C0.0634766 2.72313 2.34925 0.407593 5.15255 0.407593C6.70515 0.407593 8.17149 1.12847 9.1203 2.35177C10.0691 1.12847 11.5355 0.407593 13.0881 0.407593C15.8914 0.407593 18.1771 2.72313 18.1771 5.56294C18.1771 6.06537 18.0693 6.5241 17.9399 7.00469C17.9184 7.1576 17.8537 7.28867 17.8105 7.41974L17.789 7.46343C17.7674 7.50711 17.7458 7.5508 17.7243 7.59449C17.7027 7.63818 17.6812 7.70372 17.638 7.76925V7.7911L17.5949 7.90032C17.3577 8.35906 17.0989 8.73042 16.8186 9.05809C14.8779 11.5265 9.98285 15.546 9.1203 15.546ZM1.63764 7.46343C1.83171 7.81294 2.02579 8.09692 2.21986 8.31537L2.24143 8.35906C4.2253 10.8712 8.25775 13.9731 9.1203 14.41C9.98285 13.9513 14.0153 10.8712 15.9776 8.33721L15.9992 8.29352C16.2148 8.07508 16.4089 7.7911 16.5814 7.44158V7.39789L16.6677 7.26682C16.6892 7.22313 16.7108 7.17944 16.7323 7.11391C16.7539 7.07022 16.7755 7.00469 16.797 6.93915C16.8186 6.85177 16.8617 6.78624 16.8617 6.72071V6.69886C16.9695 6.28381 17.0558 5.91245 17.0558 5.51925C17.0558 3.26925 15.266 1.45614 13.0449 1.45614C11.5786 1.45614 10.2632 2.24255 9.55158 3.55323L9.1203 4.4707L8.6459 3.61876C7.93429 2.30808 6.61889 1.52167 5.15255 1.52167C2.93147 1.49983 1.14167 3.31294 1.14167 5.56294C1.14167 5.91245 1.20636 6.30566 1.33574 6.69886L1.35731 6.7644C1.37887 6.82993 1.40044 6.91731 1.44356 7.00469L1.46513 7.02653C1.48669 7.11391 1.52982 7.20129 1.59451 7.28867L1.68077 7.41974V7.46343H1.63764Z" fill="#FE7B5F"/>
</svg>
