<svg width="29" height="28" viewBox="0 0 29 28" fill="none" xmlns="http://www.w3.org/2000/svg">
<path d="M3.22275 6.22296C5.00235 6.22296 6.445 4.83007 6.445 3.11185C6.445 1.39363 5.00235 0.000732422 3.22275 0.000732422C1.44314 0.000732422 0.000488281 1.39363 0.000488281 3.11185C0.000488281 4.83007 1.44314 6.22296 3.22275 6.22296Z" fill="#269972"/>
<path d="M3.22226 17.1111C5.00186 17.1111 6.44451 15.7182 6.44451 14C6.44451 12.2818 5.00186 10.8889 3.22226 10.8889C1.44265 10.8889 0 12.2818 0 14C0 15.7182 1.44265 17.1111 3.22226 17.1111Z" fill="#FFCE00"/>
<path d="M3.22226 28C5.00186 28 6.44451 26.6072 6.44451 24.8889C6.44451 23.1707 5.00186 21.7778 3.22226 21.7778C1.44265 21.7778 0 23.1707 0 24.8889C0 26.6072 1.44265 28 3.22226 28Z" fill="#E98F80"/>
<path d="M14.5006 6.22224C16.2802 6.22224 17.7229 4.82934 17.7229 3.11112C17.7229 1.3929 16.2802 0 14.5006 0C12.721 0 11.2783 1.3929 11.2783 3.11112C11.2783 4.82934 12.721 6.22224 14.5006 6.22224Z" fill="#6DADDD"/>
<path d="M25.778 6.22224C27.5576 6.22224 29.0002 4.82934 29.0002 3.11112C29.0002 1.3929 27.5576 0 25.778 0C23.9983 0 22.5557 1.3929 22.5557 3.11112C22.5557 4.82934 23.9983 6.22224 25.778 6.22224Z" fill="#E98F80"/>
<path d="M14.5006 17.1111C16.2802 17.1111 17.7229 15.7182 17.7229 14C17.7229 12.2818 16.2802 10.8889 14.5006 10.8889C12.721 10.8889 11.2783 12.2818 11.2783 14C11.2783 15.7182 12.721 17.1111 14.5006 17.1111Z" fill="#269972"/>
<path d="M25.778 17.1111C27.5576 17.1111 29.0002 15.7182 29.0002 14C29.0002 12.2818 27.5576 10.8889 25.778 10.8889C23.9983 10.8889 22.5557 12.2818 22.5557 14C22.5557 15.7182 23.9983 17.1111 25.778 17.1111Z" fill="#6DADDD"/>
<path d="M14.5006 28C16.2802 28 17.7229 26.6072 17.7229 24.8889C17.7229 23.1707 16.2802 21.7778 14.5006 21.7778C12.721 21.7778 11.2783 23.1707 11.2783 24.8889C11.2783 26.6072 12.721 28 14.5006 28Z" fill="#6DADDD"/>
<path d="M25.778 28C27.5576 28 29.0002 26.6072 29.0002 24.8889C29.0002 23.1707 27.5576 21.7778 25.778 21.7778C23.9983 21.7778 22.5557 23.1707 22.5557 24.8889C22.5557 26.6072 23.9983 28 25.778 28Z" fill="#FFCE00"/>
</svg>
